{"title":"Edge of Winter 2016 720p WEB-DL HEVC 2CH x265","uid":15475362,"size":548074605,"categoryP":"video","categoryS":"hd___movies","magnet":"?xt=urn:btih:1df7aef5d045d168a1182ee4b50aa3dae222d3f5&amp;dn=Edge+of+Winter+2016+720p+WEB-DL+HEVC+2CH+x265&amp;tr=udp%3A%2F%2Ftracker.leechers-paradise.org%3A6969&amp;tr=udp%3A%2F%2Fzer0day.ch%3A1337&amp;tr=udp%3A%2F%2Fopen.demonii.com%3A1337&amp;tr=udp%3A%2F%2Ftracker.coppersurfer.tk%3A6969&amp;tr=udp%3A%2F%2Fexodus.desync.com%3A6969","seeders":1,"leechers":0,"uploader":"nayhtut","files":1,"time":1470182619,"description":"[Screenshots]\r\n \nhttps://s32.postimg.org/a0wa6ybrp/Edge_of_Winter_2016_720p_WEB_DL_HEVC_2_CH_x265_00.jpg \nhttps://s32.postimg.org/jzh8tfl79/Edge_of_Winter_2016_720p_WEB_DL_HEVC_2_CH_x265_00.jpg\r\n\r\n\r\nSource: Edge of Winter 2016 1080p WEB-DL DD5.1 H264-FGT (2.98 GB)\r\n\r\n\r\n__--__--__--__--__--__--__--__--__--__--__--__--__--\r\n\r\n\r\nComplete name                            : Edge.of.Winter.2016.720p.WEB-DL.HEVC.2CH.x265.mkv\r\nFormat                                   : Matroska\r\nFormat version                           : Version 4 / Version 2\r\nFile size                                : 523 MiB\r\nDuration                                 : 1h 28mn\r\nOverall bit rate                         : 823 Kbps\r\nWriting application                      : Lavf57.25.100\r\nWriting library                          : Lavf57.25.100\r\n\r\nVideo\r\n\r\nID                                       : 1\r\nFormat                                   : V_MPEGH/ISO/HEVC\r\nCodec ID                                 : V_MPEGH/ISO/HEVC\r\nDuration                                 : 1h 28mn\r\nBit rate                                 : 615 Kbps\r\nWidth                                    : 1 280 pixels\r\nHeight                                   : 540 pixels\r\nDisplay aspect ratio                     : 2.40:1\r\nFrame rate                               : 25.000 fps\r\nBits/(Pixel*Frame)                       : 0.036\r\nStream size                              : 390 MiB (75%)\r\nWriting library                          : Lavc57.48.101 libx265\r\nLanguage                                 : English\r\nDefault                                  : Yes\r\nForced                                   : No\r\nDURATION                                 : 01:28:44.411000000\r\n\r\nAudio\r\n\r\nID                                       : 2\r\nFormat                                   : AC-3\r\nFormat/Info                              : Audio Coding 3\r\nMode extension                           : CM (complete main)\r\nFormat settings, Endianness              : Big\r\nCodec ID                                 : A_AC3\r\nDuration                                 : 1h 28mn\r\nBit rate mode                            : Constant\r\nBit rate                                 : 192 Kbps\r\nChannel(s)                               : 2 channels\r\nChannel positions                        : Front: L R\r\nSampling rate                            : 48.0 KHz\r\nBit depth                                : 16 bits\r\nCompression mode                         : Lossy\r\nStream size                              : 122 MiB (23%)\r\nTitle                                    : Edge.of.Winter.2016.1080p.WEB-DL.DD5.1.H264-FGT\r\nWriting library                          : Lavc57.24.102 ac3\r\nLanguage                                 : English\r\nDefault                                  : Yes\r\nForced                                   : No\r\nDURATION                                 : 01:28:44.415000000\r\n\r\nText\r\n\r\nID                                       : 3\r\nFormat                                   : ASS\r\nCodec ID                                 : S_TEXT/ASS\r\nCodec ID/Info                            : Advanced Sub Station Alpha\r\nCompression mode                         : Lossless\r\nWriting library                          : Lavc57.24.102 ass\r\nLanguage                                 : English\r\nDefault                                  : Yes\r\nForced                                   : No\r\nDURATION                                 : 01:22:57.622000000\r\n\r\nMenu\r\n\r\n00:00:00.000                             : :1\r\n00:03:58.905                             : :2\r\n00:07:40.751                             : :3\r\n00:14:11.600                             : :4\r\n00:21:30.288                             : :5\r\n00:24:51.364                             : :6\r\n00:32:48.799                             : :7\r\n00:36:42.073                             : :8\r\n00:40:55.076                             : :9\r\n00:44:47.475                             : :10\r\n00:50:53.883                             : :11\r\n00:57:24.815                             : :12\r\n01:03:27.928                             : :13\r\n01:10:00.570                             : :14\r\n01:15:48.251                             : :15\r\n01:21:28.674                             : :16\r\n\r\nIMDb: http://www.imdb.com/title/tt4526546\r\n\r\n\r\n__--__--__--__--__--__--__--__--__--__--__--__--__--\r\n\r\n\r\nAfter adding torrent with magnet link,\r\n\r\nplease add this  following trackers list to the torrent for better seeds.\r\n\r\n\r\nudp://tracker.coppersurfer.tk:6969/announce\r\n\r\nudp://tracker.opentrackr.org:1337/announce\r\n \nhttp://tracker.baravik.org:6970/announce\r\n \nhttp://tracker2.wasabii.com.tw:6969/announce\r\n\r\nudp://9.rarbg.me:2710/announce\r\n\r\n\r\n__--__--__--__--__--__--__--__--__--__--__--__--__--\r\n\r\n\r\nEnjoy!","torrent":{"xt":"urn:btih:1df7aef5d045d168a1182ee4b50aa3dae222d3f5","amp;dn":"Edge+of+Winter+2016+720p+WEB-DL+HEVC+2CH+x265","amp;tr":["udp%3A%2F%2Ftracker.leechers-paradise.org%3A6969","udp%3A%2F%2Fzer0day.ch%3A1337","udp%3A%2F%2Fopen.demonii.com%3A1337","udp%3A%2F%2Ftracker.coppersurfer.tk%3A6969","udp%3A%2F%2Fexodus.desync.com%3A6969"],"infoHash":"1df7aef5d045d168a1182ee4b50aa3dae222d3f5","infoHashBuffer":{"type":"Buffer","data":[29,247,174,245,208,69,209,104,161,24,46,228,181,10,163,218,226,34,211,245]},"announce":[],"urlList":[]}}